<?xml version="1.0" encoding="UTF-8" standalone="no"?>
<svg
   xmlns:dc="http://purl.org/dc/elements/1.1/"
   xmlns:cc="http://creativecommons.org/ns#"
   xmlns:rdf="http://www.w3.org/1999/02/22-rdf-syntax-ns#"
   xmlns:svg="http://www.w3.org/2000/svg"
   xmlns="http://www.w3.org/2000/svg"
   viewBox="0 0 1600 1600"
   height="1600"
   width="1600"
   xml:space="preserve"
   id="svg2"
   version="1.1"><metadata
     id="metadata8"><rdf:RDF><cc:Work
         rdf:about=""><dc:format>image/svg+xml</dc:format><dc:type
           rdf:resource="http://purl.org/dc/dcmitype/StillImage" /></cc:Work></rdf:RDF></metadata><defs
     id="defs6"><clipPath
       id="clipPath18"
       clipPathUnits="userSpaceOnUse"><path
         id="path16"
         d="M 0,1200 H 1200 V 0 H 0 Z" /></clipPath></defs><g
     transform="matrix(1.3333333,0,0,-1.3333333,0,1600)"
     id="g10"><g
       id="g12"><g
         clip-path="url(#clipPath18)"
         id="g14"><g
           transform="translate(512.3728,847.4634)"
           id="g20"><path
             id="path22"
             style="fill:#6ec8e4;fill-opacity:1;fill-rule:nonzero;stroke:none"
             d="M 0,0 C 0.458,0.177 1.005,0.155 1.216,-0.051 1.427,-0.254 1.052,-0.399 0.383,-0.372 -0.356,-0.344 -0.506,-0.198 0,-0.002 Z m 28.208,-0.606 c 0.617,0.156 1.474,0.145 1.903,-0.022 0.43,-0.167 -0.075,-0.295 -1.122,-0.282 -1.047,0.015 -1.399,0.15 -0.781,0.306 z m -57.105,0 c 0.617,0.156 1.474,0.145 1.903,-0.022 0.43,-0.167 -0.076,-0.295 -1.122,-0.282 -1.047,0.015 -1.399,0.15 -0.781,0.306 z m 70.14,-0.618 c 0.457,0.177 1.005,0.155 1.216,-0.051 0.21,-0.203 -0.164,-0.347 -0.833,-0.321 -0.739,0.028 -0.89,0.174 -0.384,0.37 z m -82.486,0 c 0.458,0.177 1.006,0.155 1.217,-0.051 0.21,-0.203 -0.165,-0.347 -0.833,-0.321 -0.739,0.028 -0.89,0.174 -0.384,0.37 z m -9.517,-0.612 c 0.458,0.177 1.005,0.155 1.216,-0.051 0.211,-0.203 -0.164,-0.348 -0.833,-0.322 -0.739,0.029 -0.889,0.174 -0.383,0.37 z M 65.988,-3.061 c 0.458,0.177 1.005,0.156 1.216,-0.05 0.211,-0.203 -0.164,-0.348 -0.833,-0.322 -0.738,0.029 -0.889,0.174 -0.383,0.369 z M 4.402,-11.004 c 0.785,0.146 2.07,0.146 2.855,0 0.785,-0.147 0.142,-0.266 -1.428,-0.266 -1.57,0 -2.212,0.12 -1.427,0.266 m -36.167,0 c 0.786,0.146 2.07,0.146 2.856,0 0.785,-0.147 0.143,-0.266 -1.428,-0.266 -1.57,0 -2.213,0.12 -1.428,0.266 m 53.933,-0.64 c 0.436,0.17 1.15,0.17 1.586,0 0.436,-0.169 0.08,-0.308 -0.793,-0.308 -0.872,0 -1.229,0.139 -0.793,0.308 m -70.43,0 c 0.436,0.17 1.15,0.17 1.587,0 0.436,-0.169 0.079,-0.308 -0.794,-0.308 -0.872,0 -1.229,0.139 -0.793,0.308 m 81.89,-0.599 c 0.458,0.177 1.006,0.155 1.217,-0.051 0.21,-0.203 -0.164,-0.347 -0.833,-0.321 -0.739,0.029 -0.89,0.174 -0.384,0.37 z m -92.637,0 c 0.458,0.177 1.006,0.155 1.217,-0.051 0.21,-0.203 -0.165,-0.347 -0.833,-0.321 -0.739,0.029 -0.89,0.174 -0.383,0.37 z m 36.127,-6.086 c 2.181,0.119 5.75,0.119 7.932,0 2.181,-0.119 0.396,-0.218 -3.966,-0.218 -4.362,0 -6.147,0.098 -3.966,0.218 m 31.733,-0.633 c 0.789,0.146 1.931,0.141 2.538,-0.014 0.606,-0.154 -0.038,-0.274 -1.435,-0.266 -1.396,0.006 -1.893,0.132 -1.103,0.278 z m -57.105,0 c 0.789,0.146 1.931,0.141 2.538,-0.014 0.607,-0.154 -0.038,-0.274 -1.435,-0.266 -1.396,0.006 -1.893,0.132 -1.103,0.278 z m 70.422,-0.64 c 0.436,0.17 1.15,0.17 1.586,0 0.436,-0.17 0.08,-0.308 -0.793,-0.308 -0.872,0 -1.229,0.138 -0.793,0.308 m -82.79,0.022 c 0.617,0.155 1.474,0.145 1.903,-0.022 0.43,-0.167 -0.076,-0.295 -1.122,-0.282 -1.047,0.015 -1.399,0.15 -0.781,0.305 z m 92.307,-0.631 c 0.437,0.17 1.15,0.17 1.587,0 0.436,-0.17 0.079,-0.309 -0.793,-0.309 -0.873,0 -1.23,0.139 -0.794,0.309 m -101.48,0.014 c 0.458,0.177 1.005,0.155 1.216,-0.05 0.211,-0.204 -0.164,-0.349 -0.833,-0.322 -0.739,0.029 -0.889,0.174 -0.383,0.37 z m 109.769,-0.612 c 0.457,0.176 1.005,0.155 1.216,-0.051 0.21,-0.203 -0.164,-0.348 -0.833,-0.321 -0.739,0.028 -0.89,0.174 -0.383,0.37 z m -118.057,-0.015 c 0.436,0.17 1.15,0.17 1.586,0 0.436,-0.169 0.079,-0.308 -0.793,-0.308 -0.873,0 -1.23,0.139 -0.793,0.308 m 124.996,-0.612 c 0.437,0.17 1.15,0.17 1.587,0 0.436,-0.17 0.079,-0.309 -0.793,-0.309 -0.873,0 -1.23,0.139 -0.794,0.309 m -131.936,0.014 c 0.458,0.178 1.005,0.156 1.216,-0.05 0.211,-0.203 -0.164,-0.349 -0.833,-0.322 -0.739,0.029 -0.889,0.174 -0.383,0.37 z m 138.321,-0.612 c 0.458,0.177 1.005,0.156 1.216,-0.05 0.211,-0.204 -0.164,-0.348 -0.833,-0.322 -0.739,0.029 -0.889,0.174 -0.383,0.37 z m 11.421,-1.224 c 0.458,0.177 1.005,0.155 1.216,-0.051 0.211,-0.203 -0.164,-0.347 -0.833,-0.321 -0.738,0.028 -0.889,0.174 -0.383,0.369 z m -166.874,0 c 0.458,0.177 1.005,0.155 1.216,-0.051 0.211,-0.203 -0.164,-0.347 -0.833,-0.321 -0.739,0.028 -0.889,0.174 -0.383,0.369 z m -5.076,-0.612 c 0.458,0.177 1.005,0.155 1.216,-0.051 0.211,-0.203 -0.164,-0.348 -0.833,-0.322 -0.739,0.029 -0.889,0.174 -0.383,0.37 z m 100.846,-5.502 c 0.785,0.146 2.07,0.146 2.855,0 0.786,-0.146 0.144,-0.266 -1.427,-0.266 -1.57,0 -2.213,0.12 -1.428,0.266 m -52.337,0.007 c 0.964,0.141 2.392,0.137 3.172,-0.007 0.781,-0.146 -0.007,-0.261 -1.753,-0.256 -1.745,0.004 -2.384,0.123 -1.419,0.264 z m 66.296,-0.646 c 0.436,0.17 1.15,0.17 1.587,0 0.436,-0.17 0.079,-0.308 -0.794,-0.308 -0.872,0 -1.229,0.138 -0.793,0.308 m -78.983,0.022 c 0.617,0.155 1.474,0.145 1.903,-0.022 0.43,-0.167 -0.075,-0.295 -1.122,-0.282 -1.047,0.015 -1.398,0.15 -0.781,0.305 z m 89.135,-0.631 c 0.436,0.17 1.15,0.17 1.586,0 0.437,-0.17 0.08,-0.309 -0.793,-0.309 -0.872,0 -1.229,0.139 -0.793,0.309 m -98.942,0.014 c 0.458,0.177 1.005,0.156 1.216,-0.05 0.211,-0.204 -0.164,-0.349 -0.833,-0.322 -0.739,0.029 -0.889,0.174 -0.383,0.369 z M 25.975,-31.23 c 0.436,0.169 1.15,0.169 1.586,0 0.436,-0.17 0.08,-0.309 -0.793,-0.309 -0.872,0 -1.229,0.139 -0.793,0.309 m -115.44,0.014 c 0.458,0.177 1.005,0.155 1.216,-0.051 0.211,-0.203 -0.164,-0.348 -0.832,-0.321 -0.74,0.029 -0.89,0.174 -0.384,0.37 z m 122.419,-0.625 c 0.437,0.17 1.15,0.17 1.587,0 0.436,-0.17 0.079,-0.308 -0.794,-0.308 -0.872,0 -1.229,0.138 -0.793,0.308 m -129.398,0.015 c 0.458,0.176 1.005,0.154 1.216,-0.051 0.211,-0.203 -0.164,-0.348 -0.833,-0.322 -0.739,0.029 -0.89,0.175 -0.383,0.371 z m -6.345,-0.613 c 0.458,0.178 1.005,0.156 1.216,-0.05 0.211,-0.203 -0.164,-0.349 -0.833,-0.322 -0.739,0.029 -0.89,0.174 -0.383,0.37 z m 148.473,-0.612 c 0.458,0.177 1.005,0.155 1.216,-0.051 0.211,-0.203 -0.164,-0.347 -0.833,-0.321 -0.739,0.029 -0.889,0.174 -0.383,0.37 z m -159.895,-0.612 c 0.459,0.177 1.006,0.155 1.217,-0.051 0.21,-0.203 -0.164,-0.348 -0.833,-0.322 -0.739,0.029 -0.89,0.174 -0.383,0.37 z m -5.076,-0.613 c 0.459,0.177 1.006,0.156 1.217,-0.05 0.21,-0.204 -0.164,-0.348 -0.833,-0.322 -0.739,0.029 -0.89,0.174 -0.383,0.369 z m 180.199,-0.612 c 0.458,0.177 1.005,0.155 1.216,-0.051 0.211,-0.203 -0.164,-0.348 -0.833,-0.321 -0.739,0.028 -0.889,0.174 -0.383,0.369 z m -83.468,-1.815 c 0.965,0.141 2.392,0.136 3.173,-0.008 0.78,-0.145 -0.008,-0.26 -1.754,-0.256 -1.745,0.005 -2.383,0.124 -1.419,0.264 z m -32.359,0 c 0.964,0.141 2.392,0.136 3.172,-0.008 0.781,-0.145 -0.007,-0.26 -1.753,-0.256 -1.745,0.005 -2.384,0.124 -1.419,0.264 z m 51.068,-0.646 c 0.436,0.17 1.15,0.17 1.587,0 0.436,-0.17 0.079,-0.309 -0.794,-0.309 -0.872,0 -1.229,0.139 -0.793,0.309 m -68.526,0 c 0.436,0.17 1.15,0.17 1.586,0 0.437,-0.17 0.08,-0.309 -0.793,-0.309 -0.872,0 -1.229,0.139 -0.793,0.309 m 79.987,-0.599 c 0.458,0.177 1.005,0.155 1.216,-0.051 0.211,-0.203 -0.164,-0.349 -0.833,-0.322 -0.739,0.029 -0.889,0.175 -0.383,0.37 z m -90.734,0 c 0.458,0.177 1.005,0.155 1.216,-0.051 0.211,-0.203 -0.164,-0.349 -0.832,-0.322 -0.74,0.029 -0.89,0.175 -0.384,0.37 z m 99.617,-0.613 c 0.458,0.177 1.005,0.156 1.216,-0.05 0.211,-0.204 -0.164,-0.348 -0.833,-0.322 -0.739,0.029 -0.889,0.174 -0.383,0.37 z m -40.953,-9.176 c 0.618,0.156 1.474,0.145 1.904,-0.021 0.429,-0.168 -0.076,-0.295 -1.123,-0.282 -1.047,0.014 -1.398,0.149 -0.781,0.305 z m -52.664,0 c 0.618,0.156 1.474,0.145 1.904,-0.021 0.43,-0.168 -0.076,-0.295 -1.123,-0.282 -1.046,0.014 -1.398,0.149 -0.781,0.305 z m 66.333,-0.618 c 0.458,0.177 1.006,0.156 1.217,-0.05 0.21,-0.204 -0.165,-0.348 -0.833,-0.322 -0.739,0.029 -0.89,0.174 -0.383,0.37 z m -79.947,0 c 0.458,0.177 1.005,0.156 1.216,-0.05 0.211,-0.204 -0.164,-0.348 -0.832,-0.322 -0.74,0.029 -0.89,0.174 -0.384,0.37 z m 90.099,-0.612 c 0.458,0.177 1.006,0.155 1.217,-0.051 0.21,-0.203 -0.165,-0.347 -0.833,-0.321 -0.739,0.028 -0.89,0.174 -0.384,0.37 z m -99.616,0 c 0.458,0.177 1.005,0.155 1.216,-0.051 0.211,-0.203 -0.164,-0.347 -0.833,-0.321 -0.739,0.028 -0.89,0.174 -0.383,0.37 z m -8.249,-0.612 c 0.458,0.177 1.005,0.155 1.216,-0.051 0.211,-0.203 -0.164,-0.348 -0.833,-0.322 -0.739,0.029 -0.889,0.174 -0.383,0.37 z m 123.093,-0.613 c 0.458,0.177 1.006,0.156 1.217,-0.05 0.21,-0.204 -0.165,-0.348 -0.833,-0.322 -0.739,0.029 -0.89,0.174 -0.384,0.37 z m -336.485,-44.491 c 0.216,0.337 0.518,0.612 0.672,0.612 0.154,0 0.28,-0.275 0.28,-0.612 0,-0.337 -0.302,-0.613 -0.672,-0.613 -0.369,0 -0.495,0.276 -0.28,0.613 m 648.698,-3.826 c -0.789,0.971 -0.767,0.993 0.24,0.232 1.056,-0.8 1.393,-1.303 0.87,-1.303 -0.131,0 -0.631,0.483 -1.11,1.071 z m -660.047,-8.304 c 0.183,0.286 0.599,0.361 0.924,0.167 0.83,-0.495 0.737,-0.688 -0.333,-0.688 -0.508,0 -0.774,0.234 -0.591,0.52 z m -2.927,-1.145 c 0,0.105 0.928,1 2.062,1.989 l 2.062,1.798 -1.863,-1.989 c -1.737,-1.855 -2.261,-2.271 -2.261,-1.798 m 673.126,-0.345 c -0.789,0.971 -0.767,0.992 0.24,0.231 1.057,-0.799 1.393,-1.302 0.87,-1.302 -0.131,0 -0.631,0.482 -1.11,1.071 z m -674.395,-2.371 c 0,0.296 0.475,0.916 1.056,1.378 0.957,0.761 0.984,0.711 0.295,-0.537 -0.787,-1.425 -1.351,-1.776 -1.351,-0.841 z m 638.228,-0.078 c -0.789,0.971 -0.767,0.993 0.24,0.232 1.057,-0.8 1.393,-1.303 0.871,-1.303 -0.132,0 -0.632,0.483 -1.11,1.072 z m -641.083,-1.683 c 0.215,0.337 0.677,0.612 1.026,0.612 0.349,0 0.458,-0.275 0.243,-0.612 -0.216,-0.337 -0.678,-0.612 -1.027,-0.612 -0.349,0 -0.458,0.275 -0.242,0.612 m 646.827,-3.214 -1.539,1.684 1.745,-1.484 c 0.96,-0.817 1.745,-1.574 1.745,-1.684 0,-0.48 -0.514,-0.089 -1.951,1.484 z m -17.799,-6.121 c -0.789,0.971 -0.767,0.993 0.24,0.231 1.056,-0.799 1.393,-1.302 0.87,-1.302 -0.131,0 -0.631,0.482 -1.11,1.071 z m 30.489,-6.121 -1.538,1.683 1.744,-1.484 c 0.96,-0.816 1.745,-1.574 1.745,-1.683 0,-0.48 -0.514,-0.09 -1.951,1.484 z m -23.463,0 -2.186,2.295 2.379,-2.109 c 2.214,-1.964 2.671,-2.482 2.186,-2.482 -0.106,0 -1.176,1.033 -2.379,2.296 z m -655.433,-1.531 c 1.556,1.6 2.912,2.908 3.014,2.908 0.476,0 -0.027,-0.55 -2.829,-3.086 l -3.014,-2.729 z m 683.939,-3.979 c -0.789,0.971 -0.767,0.993 0.24,0.232 1.057,-0.8 1.393,-1.303 0.871,-1.303 -0.132,0 -0.631,0.483 -1.111,1.072 z m -688.989,-3.696 c 0,0.351 0.5,1.017 1.111,1.479 1.027,0.777 1.04,0.748 0.179,-0.384 -0.512,-0.673 -1.011,-1.339 -1.11,-1.479 -0.099,-0.14 -0.18,0.029 -0.18,0.384 m -1.93,0.942 c 1.556,1.599 2.912,2.908 3.014,2.908 0.477,0 -0.027,-0.55 -2.828,-3.087 l -3.014,-2.729 z m 671.931,-0.918 -2.187,2.295 2.379,-2.109 c 2.215,-1.964 2.671,-2.482 2.187,-2.482 -0.106,0 -1.177,1.033 -2.379,2.296 z m -672.073,-2.22 c 0.43,0.419 0.942,0.607 1.137,0.418 0.196,-0.189 -0.156,-0.531 -0.782,-0.761 -0.904,-0.332 -0.977,-0.261 -0.355,0.343 z m 677.736,-3.902 c -0.789,0.971 -0.766,0.993 0.24,0.232 1.057,-0.8 1.393,-1.303 0.871,-1.303 -0.132,0 -0.631,0.483 -1.11,1.072 z m -16.434,3.061 -4.106,4.132 4.283,-3.961 c 2.355,-2.179 4.283,-4.038 4.283,-4.132 0,-0.45 -0.646,0.123 -4.46,3.961 z m -665.186,-4.02 c 0.184,0.287 0.599,0.362 0.924,0.168 0.83,-0.495 0.737,-0.688 -0.333,-0.688 -0.508,0 -0.774,0.234 -0.591,0.52 z m -5.465,-1.105 c 0,0.127 0.5,0.61 1.111,1.071 1.006,0.762 1.029,0.74 0.239,-0.231 -0.829,-1.02 -1.35,-1.344 -1.35,-0.84 z m -6.979,-9.61 c 0,0.341 0.642,1.144 1.427,1.786 l 1.428,1.166 -1.262,-1.531 c -0.694,-0.841 -1.337,-1.645 -1.428,-1.785 -0.091,-0.14 -0.165,0.022 -0.165,0.364 z m 760.941,-40.203 c 0,1.515 0.124,2.135 0.275,1.377 0.151,-0.757 0.151,-1.997 0,-2.754 -0.152,-0.758 -0.275,-0.138 -0.275,1.377 m -755.18,-2.704 c 0.03,0.713 0.18,0.858 0.383,0.37 0.183,-0.442 0.161,-0.97 -0.05,-1.174 -0.211,-0.203 -0.361,0.159 -0.334,0.804 z m 755.167,-2.499 c 0.007,1.346 0.137,1.825 0.289,1.064 0.152,-0.762 0.146,-1.863 -0.015,-2.449 -0.159,-0.585 -0.284,0.036 -0.276,1.385 z m -19.779,-3.622 c 0.029,0.713 0.18,0.858 0.383,0.37 0.184,-0.442 0.161,-0.97 -0.052,-1.173 -0.211,-0.203 -0.361,0.158 -0.334,0.803 z m -753.789,-1.224 c 0.031,0.713 0.181,0.858 0.383,0.37 0.184,-0.442 0.161,-0.97 -0.05,-1.173 -0.211,-0.204 -0.361,0.158 -0.333,0.803 z m 5.71,-3.673 c 0.031,0.713 0.181,0.858 0.384,0.37 0.183,-0.442 0.161,-0.97 -0.05,-1.173 -0.211,-0.203 -0.361,0.158 -0.334,0.803 z m 755.23,0.255 c 0,2.862 0.109,4.033 0.243,2.602 0.133,-1.431 0.133,-3.773 0,-5.203 -0.134,-1.431 -0.243,-0.261 -0.243,2.601 m -761.452,-7.345 c 0,1.515 0.124,2.134 0.275,1.377 0.151,-0.758 0.151,-1.997 0,-2.755 -0.151,-0.757 -0.275,-0.137 -0.275,1.378 m -12.128,-2.449 c 0,0.842 0.144,1.186 0.32,0.765 0.176,-0.421 0.176,-1.109 0,-1.53 -0.176,-0.421 -0.32,-0.077 -0.32,0.765 m 754.423,-0.612 c 0,0.841 0.144,1.186 0.32,0.765 0.176,-0.421 0.176,-1.11 0,-1.53 -0.176,-0.421 -0.32,-0.077 -0.32,0.765 m 12.822,2.754 c 0.001,3.367 0.108,4.666 0.237,2.887 0.128,-1.778 0.127,-4.533 -0.003,-6.121 -0.131,-1.588 -0.236,-0.132 -0.234,3.234 z m -773.64,-9.743 c 0.03,0.713 0.181,0.858 0.383,0.37 0.183,-0.441 0.161,-0.97 -0.05,-1.173 -0.211,-0.203 -0.361,0.158 -0.333,0.804 z m 760.818,-8.314 c 0,0.841 0.144,1.186 0.32,0.765 0.176,-0.421 0.176,-1.11 0,-1.531 -0.176,-0.42 -0.32,-0.076 -0.32,0.766 m -754.423,-1.219 c 0,0.841 0.144,1.186 0.32,0.765 0.176,-0.421 0.176,-1.109 0,-1.53 -0.176,-0.421 -0.32,-0.077 -0.32,0.765 m -6.395,-6.989 c 0.03,0.713 0.181,0.859 0.383,0.37 0.183,-0.441 0.161,-0.969 -0.05,-1.173 -0.211,-0.203 -0.361,0.159 -0.333,0.804 z m 741.733,-10.406 c 0.03,0.713 0.181,0.858 0.384,0.37 0.183,-0.441 0.161,-0.969 -0.053,-1.173 -0.21,-0.203 -0.36,0.158 -0.333,0.803 z m 6.929,-34.024 c 0,0.337 0.302,0.612 0.673,0.612 0.369,0 0.495,-0.275 0.279,-0.612 -0.216,-0.337 -0.518,-0.612 -0.672,-0.612 -0.154,0 -0.28,0.275 -0.28,0.612 m -1.586,-4.898 c 2.072,2.021 3.91,3.673 4.085,3.673 0.174,0 -1.378,-1.653 -3.45,-3.673 -2.072,-2.02 -3.91,-3.672 -4.085,-3.672 -0.175,0 1.378,1.653 3.45,3.672 m -695.178,-5.662 c -0.789,0.971 -0.767,0.993 0.24,0.232 0.61,-0.462 1.11,-0.945 1.11,-1.072 0,-0.503 -0.521,-0.179 -1.35,0.841 z m 4.145,-4.591 -1.209,1.378 1.428,-1.166 c 1.341,-1.096 1.716,-1.589 1.209,-1.589 -0.121,0 -0.763,0.62 -1.428,1.377 z m 674.219,-2.601 c 0,0.337 0.303,0.612 0.672,0.612 0.37,0 0.495,-0.275 0.28,-0.612 -0.216,-0.337 -0.518,-0.613 -0.673,-0.613 -0.153,0 -0.279,0.276 -0.279,0.613 m -3.173,-4.054 c 0,0.127 0.5,0.61 1.111,1.071 1.006,0.762 1.029,0.74 0.239,-0.231 -0.828,-1.02 -1.349,-1.344 -1.349,-0.84 z m 1.269,-1.149 c 0.82,0.841 1.633,1.53 1.808,1.53 0.174,0 -0.353,-0.689 -1.173,-1.53 -0.82,-0.842 -1.633,-1.531 -1.808,-1.531 -0.174,0 0.353,0.69 1.173,1.531 m -685.978,-1.684 c -0.789,0.971 -0.766,0.993 0.24,0.232 1.057,-0.8 1.393,-1.303 0.871,-1.303 -0.132,0 -0.632,0.482 -1.111,1.071 z m 30.16,-6.427 -1.209,1.377 1.428,-1.166 c 0.785,-0.641 1.428,-1.261 1.428,-1.377 0,-0.49 -0.511,-0.128 -1.647,1.166 m -21.217,-2.755 -3.468,3.52 3.648,-3.346 c 3.39,-3.108 3.939,-3.693 3.468,-3.693 -0.099,0 -1.741,1.584 -3.648,3.519 m -8.584,-5.203 -1.864,1.99 2.062,-1.798 c 1.134,-0.989 2.062,-1.884 2.062,-1.99 0,-0.472 -0.523,-0.057 -2.26,1.798 m 18.38,-3.672 -1.209,1.377 1.428,-1.166 c 1.341,-1.096 1.716,-1.589 1.209,-1.589 -0.121,0 -0.763,0.62 -1.428,1.378 z m 648.204,1.377 c 2.248,2.188 4.231,3.979 4.405,3.979 0.175,0 -1.522,-1.791 -3.77,-3.979 -2.248,-2.188 -4.23,-3.979 -4.405,-3.979 -0.175,0 1.522,1.791 3.77,3.979 m -6.63,-3.511 c 0.331,0.258 1.45,1.153 2.487,1.99 1.452,1.172 1.677,1.24 0.983,0.297 -1.167,-1.585 -2.625,-2.755 -3.433,-2.755 -0.398,0 -0.412,0.178 -0.037,0.469 z m -654.878,0.909 -1.864,1.99 2.062,-1.798 c 1.923,-1.676 2.354,-2.181 1.864,-2.181 -0.109,0 -1.037,0.895 -2.062,1.989 z m 650.34,-4.285 c -0.251,0.421 -0.222,0.562 0.06,0.312 0.286,-0.249 0.974,-0.112 1.53,0.306 0.893,0.672 0.909,0.636 0.139,-0.312 -1.038,-1.277 -1.142,-1.295 -1.731,-0.306 z M 50.126,-393.591 c 0.457,0.177 1.005,0.155 1.216,-0.05 0.21,-0.204 -0.164,-0.348 -0.833,-0.322 -0.739,0.029 -0.89,0.174 -0.383,0.37 z m -10.152,-0.612 c 0.458,0.177 1.005,0.155 1.216,-0.051 0.21,-0.203 -0.164,-0.347 -0.833,-0.321 -0.739,0.028 -0.89,0.174 -0.383,0.37 z m -79.947,0 c 0.457,0.177 1.005,0.155 1.216,-0.051 0.21,-0.203 -0.164,-0.347 -0.833,-0.321 -0.739,0.028 -0.89,0.174 -0.384,0.37 z m 66.265,-0.608 c 0.611,0.154 1.61,0.154 2.221,0 0.611,-0.154 0.111,-0.28 -1.11,-0.28 -1.222,0 -1.722,0.126 -1.111,0.28 m -53.286,0.002 c 0.618,0.155 1.474,0.145 1.904,-0.022 0.429,-0.167 -0.076,-0.295 -1.123,-0.282 -1.047,0.015 -1.398,0.15 -0.781,0.305 z m 68.871,-9.188 c 0.458,0.177 1.005,0.156 1.216,-0.051 0.211,-0.203 -0.164,-0.347 -0.833,-0.321 -0.738,0.029 -0.889,0.174 -0.383,0.37 z m -109.134,0 c 0.458,0.177 1.005,0.156 1.216,-0.051 0.211,-0.203 -0.164,-0.347 -0.833,-0.321 -0.739,0.029 -0.889,0.174 -0.383,0.37 z m 100.251,-0.612 c 0.458,0.177 1.005,0.154 1.216,-0.051 0.211,-0.203 -0.164,-0.348 -0.833,-0.322 -0.738,0.029 -0.889,0.175 -0.383,0.371 z m -91.368,0 c 0.458,0.177 1.005,0.154 1.216,-0.051 0.211,-0.203 -0.164,-0.348 -0.833,-0.322 -0.739,0.029 -0.889,0.175 -0.383,0.371 z m 79.907,-0.625 c 0.437,0.17 1.15,0.17 1.587,0 0.436,-0.17 0.079,-0.309 -0.793,-0.309 -0.873,0 -1.23,0.139 -0.794,0.309 m -69.16,0 c 0.436,0.17 1.15,0.17 1.586,0 0.436,-0.17 0.08,-0.309 -0.793,-0.309 -0.872,0 -1.229,0.139 -0.793,0.309 m 51.086,-0.578 c 0.964,0.141 2.392,0.136 3.172,-0.008 0.781,-0.145 -0.007,-0.26 -1.753,-0.256 -1.745,0.005 -2.384,0.124 -1.419,0.264 z m -34.263,0 c 0.964,0.141 2.392,0.136 3.172,-0.008 0.781,-0.145 -0.007,-0.26 -1.753,-0.256 -1.745,0.005 -2.384,0.124 -1.419,0.264 z m 94.889,-3.082 c 0.457,0.177 1.005,0.155 1.216,-0.051 0.21,-0.203 -0.164,-0.347 -0.833,-0.321 -0.739,0.029 -0.89,0.174 -0.384,0.37 z m -165.605,0 c 0.458,0.177 1.005,0.155 1.216,-0.051 0.211,-0.203 -0.164,-0.347 -0.833,-0.321 -0.739,0.029 -0.889,0.174 -0.383,0.37 z m 154.184,-1.224 c 0.457,0.177 1.005,0.154 1.216,-0.051 0.21,-0.203 -0.164,-0.348 -0.833,-0.322 -0.739,0.029 -0.89,0.174 -0.384,0.37 z m -142.763,0 c 0.458,0.177 1.005,0.154 1.216,-0.051 0.211,-0.203 -0.164,-0.348 -0.833,-0.322 -0.739,0.029 -0.889,0.174 -0.383,0.37 z m 136.418,-0.613 c 0.457,0.177 1.005,0.155 1.216,-0.05 0.21,-0.204 -0.164,-0.348 -0.833,-0.322 -0.739,0.029 -0.889,0.174 -0.383,0.37 z m -130.073,0 c 0.458,0.177 1.005,0.155 1.216,-0.05 0.211,-0.204 -0.164,-0.348 -0.833,-0.322 -0.739,0.029 -0.889,0.174 -0.383,0.37 z m 123.093,-0.612 c 0.458,0.177 1.005,0.155 1.216,-0.051 0.211,-0.203 -0.164,-0.348 -0.833,-0.321 -0.738,0.028 -0.889,0.174 -0.383,0.37 z m -116.114,0 c 0.458,0.177 1.006,0.155 1.216,-0.051 0.211,-0.203 -0.163,-0.348 -0.832,-0.321 -0.739,0.028 -0.89,0.174 -0.384,0.37 z m 107.866,-0.613 c 0.457,0.178 1.005,0.156 1.216,-0.05 0.21,-0.203 -0.164,-0.348 -0.833,-0.322 -0.739,0.029 -0.89,0.174 -0.384,0.37 z M -69.2,-411.97 c 0.436,0.17 1.15,0.17 1.586,0 0.436,-0.17 0.079,-0.309 -0.793,-0.309 -0.873,0 -1.229,0.139 -0.793,0.309 m 90.099,-0.612 c 0.436,0.17 1.15,0.17 1.586,0 0.436,-0.17 0.08,-0.309 -0.793,-0.309 -0.872,0 -1.229,0.139 -0.793,0.309 m -79.947,0 c 0.436,0.17 1.15,0.17 1.586,0 0.436,-0.17 0.079,-0.309 -0.793,-0.309 -0.873,0 -1.229,0.139 -0.793,0.309 m 65.988,-0.586 c 0.785,0.146 2.07,0.146 2.855,0 0.785,-0.146 0.143,-0.265 -1.428,-0.265 -1.57,0 -2.212,0.119 -1.427,0.265 m -53.298,0 c 0.785,0.146 2.07,0.146 2.855,0 0.785,-0.146 0.142,-0.265 -1.428,-0.265 -1.57,0 -2.212,0.119 -1.427,0.265 m 103.463,-5.523 c 0.458,0.177 1.005,0.155 1.216,-0.051 0.211,-0.203 -0.164,-0.347 -0.833,-0.321 -0.738,0.029 -0.889,0.174 -0.383,0.37 z m -5.076,-0.612 c 0.458,0.177 1.005,0.155 1.216,-0.051 0.211,-0.203 -0.164,-0.348 -0.833,-0.322 -0.738,0.029 -0.889,0.175 -0.383,0.37 z m -156.087,-1.225 c 0.458,0.178 1.005,0.156 1.216,-0.05 0.211,-0.203 -0.164,-0.348 -0.833,-0.322 -0.739,0.029 -0.889,0.174 -0.383,0.37 z m 138.956,-0.612 c 0.457,0.177 1.005,0.155 1.216,-0.051 0.21,-0.203 -0.164,-0.347 -0.833,-0.321 -0.739,0.029 -0.89,0.174 -0.383,0.37 z m -132.611,0 c 0.458,0.177 1.005,0.155 1.216,-0.051 0.211,-0.203 -0.164,-0.347 -0.833,-0.321 -0.739,0.029 -0.889,0.174 -0.383,0.37 z m 125.631,-0.612 c 0.458,0.177 1.005,0.154 1.216,-0.051 0.211,-0.203 -0.164,-0.348 -0.833,-0.322 -0.739,0.029 -0.889,0.175 -0.383,0.37 z m -118.652,0 c 0.458,0.177 1.006,0.154 1.216,-0.051 0.211,-0.203 -0.164,-0.348 -0.832,-0.322 -0.74,0.029 -0.89,0.175 -0.384,0.37 z m 110.404,-0.613 c 0.457,0.178 1.005,0.155 1.216,-0.05 0.21,-0.204 -0.165,-0.348 -0.833,-0.322 -0.739,0.029 -0.89,0.174 -0.384,0.37 z m -102.829,-0.014 c 0.436,0.17 1.15,0.17 1.586,0 0.436,-0.17 0.079,-0.309 -0.793,-0.309 -0.873,0 -1.23,0.139 -0.793,0.309 m 92.966,-0.594 c 0.618,0.156 1.474,0.145 1.904,-0.021 0.429,-0.168 -0.076,-0.295 -1.123,-0.282 -1.047,0.014 -1.398,0.149 -0.781,0.305 z m -83.449,-0.021 c 0.436,0.169 1.15,0.169 1.586,0 0.437,-0.17 0.08,-0.309 -0.793,-0.309 -0.872,0 -1.229,0.139 -0.793,0.309 m 70.437,-0.585 c 0.79,0.146 1.932,0.141 2.538,-0.015 0.607,-0.153 -0.037,-0.273 -1.435,-0.266 -1.396,0.007 -1.892,0.132 -1.103,0.278 z m -58.374,0 c 0.789,0.146 1.932,0.141 2.538,-0.015 0.607,-0.153 -0.037,-0.273 -1.435,-0.266 -1.396,0.007 -1.892,0.132 -1.103,0.278 z m 25.087,-0.589 c 3.07,0.113 7.924,0.112 10.786,-10e-4 2.862,-0.114 0.349,-0.205 -5.583,-0.205 -5.932,0.001 -8.274,0.093 -5.203,0.205 z m -63.759,-4.935 c 0.458,0.177 1.005,0.155 1.216,-0.051 0.211,-0.203 -0.164,-0.347 -0.833,-0.321 -0.739,0.028 -0.889,0.174 -0.383,0.37 z m 7.614,-0.612 c 0.458,0.177 1.005,0.154 1.216,-0.051 0.211,-0.203 -0.164,-0.348 -0.833,-0.322 -0.739,0.029 -0.889,0.174 -0.383,0.37 z m 101.52,-0.613 c 0.458,0.177 1.005,0.156 1.216,-0.05 0.211,-0.204 -0.164,-0.348 -0.833,-0.322 -0.739,0.029 -0.889,0.174 -0.383,0.37 z m -93.272,0 c 0.458,0.177 1.006,0.156 1.216,-0.05 0.211,-0.204 -0.163,-0.348 -0.832,-0.322 -0.74,0.029 -0.89,0.174 -0.384,0.37 z m 81.811,-0.624 c 0.437,0.169 1.15,0.169 1.587,0 0.436,-0.17 0.079,-0.309 -0.794,-0.309 -0.872,0 -1.229,0.139 -0.793,0.309 m -71.064,0 c 0.436,0.169 1.15,0.169 1.586,0 0.437,-0.17 0.08,-0.309 -0.793,-0.309 -0.872,0 -1.229,0.139 -0.793,0.309 m 54.575,-0.585 c 0.789,0.146 1.931,0.141 2.538,-0.015 0.607,-0.153 -0.038,-0.273 -1.435,-0.266 -1.396,0.007 -1.893,0.132 -1.103,0.278 z m -38.705,0 c 0.789,0.146 1.932,0.141 2.538,-0.015 0.607,-0.153 -0.037,-0.273 -1.435,-0.266 -1.396,0.007 -1.892,0.132 -1.103,0.278 z m -58.976,-7.973 c 0.458,0.177 1.005,0.155 1.216,-0.05 0.21,-0.204 -0.164,-0.348 -0.833,-0.322 -0.739,0.029 -0.89,0.174 -0.383,0.37 z m 117.383,-1.224 c 0.457,0.177 1.005,0.155 1.216,-0.051 0.21,-0.203 -0.165,-0.347 -0.833,-0.321 -0.739,0.029 -0.89,0.174 -0.383,0.37 z m -102.155,0 c 0.458,0.177 1.005,0.155 1.216,-0.051 0.211,-0.203 -0.164,-0.347 -0.833,-0.321 -0.739,0.029 -0.89,0.174 -0.383,0.37 z m 92.637,-0.612 c 0.458,0.177 1.005,0.155 1.216,-0.051 0.211,-0.203 -0.164,-0.348 -0.833,-0.322 -0.739,0.029 -0.889,0.174 -0.383,0.37 z m -83.12,0 c 0.458,0.177 1.006,0.155 1.216,-0.051 0.211,-0.203 -0.164,-0.348 -0.832,-0.322 -0.74,0.029 -0.89,0.174 -0.384,0.37 z m 70.085,-0.606 c 0.618,0.155 1.474,0.145 1.904,-0.022 0.429,-0.168 -0.076,-0.295 -1.123,-0.282 -1.047,0.014 -1.398,0.15 -0.781,0.305 z m -58.069,-0.022 c 0.436,0.17 1.15,0.17 1.586,0 0.437,-0.17 0.08,-0.309 -0.793,-0.309 -0.872,0 -1.229,0.139 -0.793,0.309 m 27.601,-0.572 c 1.309,0.132 3.45,0.132 4.759,0 1.308,-0.132 0.238,-0.24 -2.38,-0.24 -2.617,0 -3.688,0.108 -2.379,0.24" /></g><g
           transform="translate(832.2802,544.3503)"
           id="g24"><path
             id="path26"
             style="fill:#4c95d1;fill-opacity:1;fill-rule:nonzero;stroke:none"
             d="M 0,0 C 0.82,0.842 1.347,1.53 1.173,1.53 0.998,1.53 0.185,0.841 -0.635,0 -1.454,-0.842 -1.982,-1.53 -1.807,-1.53 -1.633,-1.53 -0.82,-0.841 0,0 m -16.18,-14.934 c 9.178,9.409 10.248,10.592 14.855,16.421 11.153,14.112 20.193,31.528 24.171,46.565 4.534,17.14 4.978,34.984 1.279,51.419 -16.326,72.53 -107.661,134.399 -238.06,161.259 -27.299,5.623 -59.019,9.811 -91.577,12.092 -15.322,1.073 -76.77,1.084 -91.051,0.014 -57.003,-4.26 -102.938,-12.52 -147.839,-26.582 -41.48,-12.991 -77.155,-29.693 -108.183,-50.647 -6.141,-4.147 -0.675,0.343 8.932,7.338 57.949,42.191 148.421,71.192 247.09,79.204 40.324,3.275 89.419,2.814 129.755,-1.219 96.023,-9.599 181.987,-38.889 238.339,-81.21 36.151,-27.15 58.377,-58.333 65.391,-91.743 1.289,-6.141 1.462,-8.704 1.442,-21.364 C 38.342,73.973 38.166,71.449 36.893,65.801 33.425,50.408 26.108,33.808 17.062,20.81 14.485,17.106 12.233,13.755 12.057,13.363 11.882,12.97 9.454,10.232 6.662,7.277 3.87,4.323 1.654,1.751 1.736,1.563 1.942,1.094 -14.165,-14.491 -18.083,-17.613 c -2.584,-2.058 -2.23,-1.561 1.903,2.676 z m -12.055,-11.082 c 0.631,0.674 1.291,1.225 1.465,1.225 0.175,0 -0.199,-0.551 -0.831,-1.225 -0.631,-0.673 -1.291,-1.224 -1.465,-1.224 -0.175,0 0.199,0.551 0.831,1.224 m -353.1,-94.475 c -13.232,0.673 -27.468,1.678 -38.147,2.694 -98.779,9.396 -187.186,39.658 -244.207,83.593 -9.713,7.484 -26.84,23.683 -33.251,31.449 -23.362,28.305 -34.12,59.683 -30.821,89.896 0.88,8.066 2.84,16.884 5.44,24.485 2.964,8.663 10.515,23.312 16.244,31.513 2.549,3.648 4.92,7.09 5.269,7.648 2.136,3.417 14.16,16.06 21.87,22.997 l 3.469,3.121 -2.835,-3.365 c -1.559,-1.85 -4.507,-5.293 -6.552,-7.651 -13.426,-15.48 -24.978,-38.235 -28.904,-56.938 -2.583,-12.304 -2.846,-28.362 -0.661,-40.352 4.73,-25.95 18.629,-50.435 41.51,-73.128 21.136,-20.96 44.727,-37.163 77.114,-52.965 59.241,-28.903 128.998,-45.986 211.924,-51.898 15.108,-1.077 76.408,-1.07 91.368,0.008 41.416,2.991 76.766,8.229 110.721,16.406 58.104,13.993 105.333,33.872 145.935,61.424 6.069,4.119 0.622,-0.328 -8.883,-7.25 -64.031,-46.634 -161.857,-75.946 -271.884,-81.466 -10.917,-0.547 -55.339,-0.702 -64.719,-0.225 z" /></g><g
           transform="translate(836.2784,548.8859)"
           id="g28"><path
             id="path30"
             style="fill:#283c59;fill-opacity:1;fill-rule:nonzero;stroke:none"
             d="m 0,0 c 40.795,41.742 51.896,89.309 31.527,135.104 -18.06,40.607 -61.353,77.874 -122.013,105.029 -85.389,38.225 -197.504,54.525 -308.489,44.851 -94.347,-8.225 -180.757,-35.733 -238.89,-76.05 -9.05,-6.276 -4.656,-2.179 6.344,5.916 34.355,25.281 79.988,46.277 131.66,60.577 40.638,11.247 81.989,18.04 131.659,21.627 14.779,1.067 75.016,1.073 89.782,0.007 94.324,-6.8 172.719,-28.057 234.765,-63.657 C -3.911,210.6 25.905,182.017 41.083,152.168 50.074,134.486 53.795,119.339 53.765,100.543 53.721,73.212 44.203,48.61 23.882,23.315 18.924,17.143 3.945,2.026 -2.412,-3.222 -5.579,-5.837 -5.174,-5.295 0,-0.001 Z m -23.351,-23.205 c 0.632,0.673 1.006,1.224 0.832,1.224 -0.175,0 -0.834,-0.551 -1.466,-1.224 -0.632,-0.673 -1.006,-1.225 -0.831,-1.225 0.174,0 0.834,0.551 1.465,1.225 m -253.165,-72.28 c 53.443,4.065 97.172,11.716 139.907,24.477 40.085,11.97 74.568,27.187 104.652,46.184 l 9.794,6.184 4.348,6.44 C -2.772,10.081 4.291,33.107 3.407,56.983 2.996,68.078 1.782,75.41 -1.254,85.141 c -8.888,28.488 -29.018,55.152 -59.391,78.67 -60.028,46.479 -153.13,77.235 -258.383,85.358 -34.683,2.677 -78.251,2.553 -113.893,-0.324 -91.505,-7.387 -177.542,-33.558 -235.718,-71.703 -5.853,-3.837 -6.676,-4.635 -10.605,-10.282 -20.331,-29.213 -26.503,-62.522 -17.625,-95.117 4.723,-17.339 14.635,-35.036 29.245,-52.215 5.928,-6.971 21.932,-22.091 30.075,-28.415 61.29,-47.596 157.039,-78.867 263.954,-86.205 7.677,-0.527 15.815,-1.058 18.083,-1.18 8.757,-0.47 70.564,0.146 78.996,0.787 m -79.63,-11.827 c -66.475,2.299 -125.026,11.955 -178.93,29.506 -72.25,23.525 -127.969,59.516 -156.291,100.955 -11.487,16.807 -19.135,35.873 -21.307,53.116 -0.975,7.739 -0.846,21.483 0.272,29.074 4.383,29.755 22.508,60.085 50.484,84.476 l 5.967,5.203 -4.123,-4.508 c -5.951,-6.507 -12.055,-13.558 -12.055,-13.926 0,-0.175 1.213,0.626 2.697,1.778 1.483,1.152 5.98,4.312 9.993,7.022 92.693,62.583 248.208,90.131 394.71,69.92 92.032,-12.697 172.358,-43.583 222.978,-85.738 7.694,-6.407 20.698,-19.216 26.362,-25.967 C 7.946,115.789 19.038,83.551 15.634,53.439 12.7,27.494 -0.527,0.157 -19.155,-18.462 c -1.937,-1.935 -3.249,-3.519 -2.917,-3.519 0.777,0 -13.601,-13.984 -17.776,-17.288 -2.125,-1.683 -1.173,-0.508 2.889,3.562 3.333,3.341 7.473,7.861 9.2,10.046 l 3.139,3.972 -3.006,-2.136 c -17.944,-12.748 -30.685,-20.383 -49.657,-29.757 -60.708,-29.996 -135.04,-47.92 -219.22,-52.861 -11.167,-0.656 -49.62,-1.216 -59.643,-0.87 z m -48.54,-36.118 c -1.745,0.12 -8.169,0.519 -14.276,0.884 -108.229,6.484 -205.594,37.72 -268.712,86.205 -9.2,7.067 -25.602,22.701 -32.215,30.707 -16.609,20.105 -26.629,41 -30.373,63.335 -1.061,6.333 -1.061,25.535 0,31.713 4.723,27.488 18.036,51.566 41.945,75.863 8.614,8.753 12.028,11.108 5.991,4.133 -20.388,-23.557 -30.677,-43.56 -35.264,-68.553 -1.117,-6.087 -1.117,-26.969 0,-33.055 6.318,-34.425 25.984,-64.147 61.019,-92.219 32.385,-25.948 79.44,-48.78 132.156,-64.124 43.548,-12.676 87.496,-20.058 141.316,-23.738 14.622,-0.999 69.131,-0.999 83.754,0 53.378,3.65 97.065,10.943 140.386,23.437 46.609,13.443 90.648,33.642 121.53,55.743 8.345,5.972 6.727,4.197 -3.092,-3.393 -56.443,-43.627 -141.499,-73.4 -238.837,-83.603 -25.652,-2.688 -35.922,-3.187 -69.478,-3.373 -17.972,-0.099 -34.105,-0.082 -35.85,0.037 z" /></g><g
           transform="translate(1052.0787,658.7803)"
           id="g32"><path
             id="path34"
             style="fill:#4cc1e7;fill-opacity:1;fill-rule:nonzero;stroke:none"
             d="M 0,0 C 0.563,0.578 0.925,1.051 0.805,1.051 0.686,1.051 0.127,0.578 -0.436,0 -0.998,-0.578 -1.361,-1.051 -1.241,-1.051 -1.121,-1.051 -0.563,-0.578 0,0 m -19.387,-17.863 c 0.434,0.462 0.887,0.841 1.007,0.841 0.12,0 -0.137,-0.378 -0.571,-0.841 -0.434,-0.462 -0.887,-0.84 -1.007,-0.84 -0.119,0 0.137,0.378 0.571,0.84" /></g><g
           transform="translate(927.7145,672.8544)"
           id="g36"><path
             id="path38"
             style="fill:none;stroke:#283c59;stroke-width:2;stroke-linecap:butt;stroke-linejoin:miter;stroke-miterlimit:10;stroke-dasharray:none;stroke-opacity:1"
             d="M 0,0 V -169.19" /></g><g
           transform="translate(969.3748,642.7852)"
           id="g40"><path
             id="path42"
             style="fill:#4c95d1;fill-opacity:1;fill-rule:nonzero;stroke:none"
             d="m 0,0 h 48.17 c 3.31,0 6.14,-1.177 8.491,-3.525 2.351,-2.351 3.527,-5.215 3.527,-8.593 v -16.784 c 0,-3.312 -1.176,-6.142 -3.527,-8.493 C 54.31,-39.746 51.48,-40.92 48.17,-40.92 H 0 c -1.061,0 -1.971,-0.382 -2.733,-1.143 -0.761,-0.761 -1.142,-1.672 -1.142,-2.731 v -14.797 c 0,-1.061 0.381,-1.972 1.142,-2.733 0.762,-0.761 1.672,-1.141 2.733,-1.141 h 60.188 v -8.145 h -72.207 v 26.816 c 0,3.378 1.158,6.223 3.477,8.542 2.315,2.317 5.164,3.477 8.542,3.477 h 48.17 c 1.058,0 1.969,0.379 2.73,1.141 0.761,0.761 1.143,1.672 1.143,2.732 v 16.784 c 0,1.059 -0.382,1.97 -1.143,2.733 -0.761,0.759 -1.672,1.141 -2.73,1.141 H 0 c -1.061,0 -1.971,-0.382 -2.733,-1.141 -0.761,-0.763 -1.142,-1.674 -1.142,-2.733 v -2.781 h -8.144 v 2.781 c 0,3.378 1.158,6.242 3.477,8.593 C -6.227,-1.177 -3.378,0 0,0" /></g><g
           transform="translate(1048.4324,630.6675)"
           id="g44"><path
             id="path46"
             style="fill:#4c95d1;fill-opacity:1;fill-rule:nonzero;stroke:none"
             d="m 0,0 v -14.6 c 0,-1.06 0.382,-1.986 1.143,-2.781 0.761,-0.795 1.672,-1.191 2.732,-1.191 h 48.17 c 3.31,0 6.14,-1.16 8.491,-3.477 2.351,-2.317 3.528,-5.164 3.528,-8.542 v -16.883 c 0,-3.312 -1.177,-6.144 -3.528,-8.493 -2.351,-2.351 -5.181,-3.525 -8.491,-3.525 H 3.875 c -3.377,0 -6.226,1.174 -8.541,3.525 -2.32,2.349 -3.477,5.181 -3.477,8.493 v 2.88 H 0 v -2.88 c 0,-1.06 0.382,-1.971 1.143,-2.732 0.761,-0.762 1.672,-1.141 2.732,-1.141 h 48.17 c 1.059,0 1.969,0.379 2.731,1.141 0.761,0.761 1.142,1.672 1.142,2.732 v 16.883 c 0,1.059 -0.381,1.97 -1.142,2.733 -0.762,0.759 -1.672,1.141 -2.731,1.141 H -8.143 V 12.118 H 64.064 V 3.873 H 3.875 C 2.815,3.873 1.904,3.492 1.143,2.733 0.382,1.969 0,1.058 0,0" /></g><g
           transform="translate(268.3382,579.6906)"
           id="g48"><path
             id="path50"
             style="fill:#4c95d1;fill-opacity:1;fill-rule:nonzero;stroke:none"
             d="m 0,0 v 42.424 c 0,0.941 -0.34,1.753 -1.016,2.43 -0.679,0.678 -1.489,1.016 -2.432,1.016 h -42.424 c -0.943,0 -1.753,-0.338 -2.43,-1.016 -0.679,-0.677 -1.017,-1.489 -1.017,-2.43 V 0 c 0,-0.943 0.338,-1.755 1.017,-2.432 0.677,-0.677 1.487,-1.016 2.43,-1.016 h 42.424 c 0.943,0 1.753,0.339 2.432,1.016 C -0.34,-1.755 0,-0.943 0,0 m -56.478,53.031 h 53.03 c 2.947,0 5.45,-1.033 7.513,-3.094 2.062,-2.063 3.094,-4.568 3.094,-7.513 L 7.159,0 c 0,-2.948 -1.032,-5.451 -3.094,-7.513 -2.063,-2.063 -4.566,-3.094 -7.513,-3.094 h -53.03 z" /></g><g
           transform="translate(347.4405,632.7215)"
           id="g52"><path
             id="path54"
             style="fill:#4c95d1;fill-opacity:1;fill-rule:nonzero;stroke:none"
             d="m 0,0 v -7.161 h -50.91 v -21.035 h 40.923 v -7.247 H -50.91 V -56.478 H 0 v -7.159 H -58.069 V 0 Z" /></g><g
           transform="translate(368.0327,599.4877)"
           id="g56"><path
             id="path58"
             style="fill:#4c95d1;fill-opacity:1;fill-rule:nonzero;stroke:none"
             d="m 0,0 h 49.319 v 22.627 c 0,0.941 -0.34,1.753 -1.015,2.43 -0.679,0.677 -1.489,1.016 -2.432,1.016 H 3.448 C 2.505,26.073 1.695,25.734 1.017,25.057 0.339,24.38 0,23.568 0,22.627 Z m 3.448,33.234 h 42.424 c 2.946,0 5.449,-1.033 7.512,-3.094 2.062,-2.063 3.094,-4.568 3.094,-7.513 V -30.404 H 49.319 V -7.159 H 0 v -23.245 h -7.159 v 53.031 c 0,2.945 1.031,5.45 3.094,7.513 2.062,2.061 4.566,3.094 7.513,3.094" /></g><g
           transform="translate(438.4756,569.0841)"
           id="g60"><path
             id="path62"
             style="fill:#4c95d1;fill-opacity:1;fill-rule:nonzero;stroke:none"
             d="M 0,0 V 63.725 H 7.159 V 7.159 H 63.637 V 0 Z" /></g><g
           transform="translate(494.2585,632.7215)"
           id="g64"><path
             id="path66"
             style="fill:#283c59;fill-opacity:1;fill-rule:nonzero;stroke:none"
             d="M 0,0 H 63.637 V -11.667 H 37.74 v -67.026 c 0,-3.246 -2.631,-5.877 -5.877,-5.877 -3.246,0 -5.878,2.631 -5.878,5.877 v 67.026 l -25.985,0 z" /></g><g
           transform="translate(627.0125,632.7215)"
           id="g68"><path
             id="path70"
             style="fill:#283c59;fill-opacity:1;fill-rule:nonzero;stroke:none"
             d="M 0,0 V -11.667 H -46.757 V -25.985 H -9.104 V -37.652 H -46.757 V -51.97 H 0 V -63.637 H -58.512 V 0 Z" /></g><g
           transform="translate(703.2864,621.0543)"
           id="g72"><path
             id="path74"
             style="fill:#283c59;fill-opacity:1;fill-rule:nonzero;stroke:none"
             d="m 0,0 h -51.175 c -0.412,0 -0.618,-0.208 -0.618,-0.619 v -39.067 c 0,-0.411 0.206,-0.617 0.618,-0.617 H 0 V -51.97 h -51.175 c -3.418,0 -6.319,1.193 -8.706,3.58 -2.385,2.385 -3.579,5.287 -3.579,8.704 v 39.067 c 0,3.416 1.194,6.319 3.579,8.706 2.387,2.387 5.288,3.58 8.706,3.58 H 0 Z" /></g><g
           transform="translate(769.7505,632.7215)"
           id="g76"><path
             id="path78"
             style="fill:#283c59;fill-opacity:1;fill-rule:nonzero;stroke:none"
             d="M 0,0 H 11.667 V -63.637 H 0 v 25.985 H -41.717 V -63.637 H -53.384 V 0 h 11.667 V -25.985 H 0 Z" /></g><g
           transform="translate(188.6674,568.7379)"
           id="g80"><path
             id="path82"
             style="fill:#4c95d1;fill-opacity:1;fill-rule:nonzero;stroke:none"
             d="m 0,0 v 71.932 c 0,1.938 1.571,3.509 3.509,3.509 v 0 c 1.939,0 3.51,-1.571 3.51,-3.509 V 0 Z" /></g><g
           transform="translate(524.9998,711.3129)"
           id="g84"><path
             id="path86"
             style="fill:#4c95d1;fill-opacity:1;fill-rule:nonzero;stroke:none"
             d="m 0,0 -31.383,-31.384 c -1.75,-1.749 -4.586,-1.749 -6.335,0 v 0.001 c -1.749,1.749 -1.749,4.585 0,6.334 L -6.335,6.335 Z" /></g><g
           transform="translate(503.3509,757.3321)"
           id="g88"><path
             id="path90"
             style="fill:#283c59;fill-opacity:1;fill-rule:nonzero;stroke:none"
             d="m 0,0 34.551,-34.551 -6.335,-6.334 -14.06,14.06 -28.216,-28.216 -6.383,6.382 28.217,28.216 -14.109,14.108 z" /></g><g
           transform="translate(477.1999,690.0114)"
           id="g92"><path
             id="path94"
             style="fill:#283c59;fill-opacity:1;fill-rule:nonzero;stroke:none"
             d="m 0,0 -34.551,34.551 6.335,6.334 14.06,-14.06 L 14.06,55.041 20.443,48.659 -7.774,20.443 6.335,6.335 Z" /></g><g
           transform="translate(492.5523,761.7962)"
           id="g96"><path
             id="path98"
             style="fill:#4c95d1;fill-opacity:1;fill-rule:nonzero;stroke:none"
             d="m 0,0 -31.384,-31.383 -6.334,6.334 31.383,31.384 c 1.75,1.749 4.586,1.749 6.335,0 C 1.749,4.585 1.749,1.749 0,0" /></g><g
           transform="translate(965.5762,530.6045)"
           id="g100"><path
             id="path102"
             style="fill:#4c95d1;fill-opacity:1;fill-rule:nonzero;stroke:none"
             d="M 0,0 V 8.04 L 0.69,6.18 -8.34,21 h 3.21 L 2.46,8.49 H 0.721 L 8.34,21 h 2.971 l -9,-14.82 0.66,1.86 V 0 Z" /></g><path
           id="path104"
           style="fill:#4c95d1;fill-opacity:1;fill-rule:nonzero;stroke:none"
           d="m 994.075,542.545 h 10.8 v -2.551 h -10.8 z m -2.729,-11.941 v 21 h 14.819 v -2.61 h -11.819 v -15.779 h 12.239 v -2.611 z" /><g
           transform="translate(1024.1943,535.8545)"
           id="g106"><path
             id="path108"
             style="fill:#4c95d1;fill-opacity:1;fill-rule:nonzero;stroke:none"
             d="m 0,0 0.811,2.4 h 11.82 L 13.5,0 Z m -4.05,-5.25 9.511,21 h 2.97 l 9.54,-21 H 14.82 L 6.33,14.07 h 1.2 L -0.96,-5.25 Z" /></g><g
           transform="translate(1071.2051,530.6045)"
           id="g110"><path
             id="path112"
             style="fill:#4c95d1;fill-opacity:1;fill-rule:nonzero;stroke:none"
             d="m 0,0 -5.341,7.62 h 3.21 L 3.27,0 Z m -11.04,7.47 -1.351,1.47 h 6.451 c 1.919,0 3.375,0.414 4.365,1.245 0.99,0.83 1.484,1.995 1.484,3.495 0,1.5 -0.494,2.66 -1.484,3.48 -0.99,0.819 -2.446,1.23 -4.365,1.23 h -6.451 l 1.351,1.5 z m -3,-7.47 v 21 h 8.189 c 2.72,0 4.861,-0.645 6.42,-1.935 1.561,-1.29 2.34,-3.086 2.34,-5.385 0,-1.52 -0.349,-2.826 -1.05,-3.915 -0.7,-1.09 -1.7,-1.925 -3,-2.505 -1.299,-0.58 -2.87,-0.87 -4.71,-0.87 h -6.54 l 1.351,1.38 V 0 Z" /></g><g
           transform="translate(1096.9736,530.3643)"
           id="g114"><path
             id="path116"
             style="fill:#4c95d1;fill-opacity:1;fill-rule:nonzero;stroke:none"
             d="M 0,0 C -1.6,0 -3.13,0.245 -4.59,0.735 -6.05,1.225 -7.199,1.86 -8.039,2.641 L -6.93,4.98 C -6.13,4.28 -5.109,3.7 -3.869,3.24 -2.63,2.78 -1.34,2.55 0,2.55 1.22,2.55 2.21,2.689 2.971,2.971 3.73,3.25 4.29,3.635 4.65,4.125 5.011,4.615 5.19,5.17 5.19,5.79 5.19,6.51 4.955,7.09 4.485,7.53 4.016,7.97 3.405,8.325 2.655,8.596 1.905,8.865 1.08,9.1 0.181,9.3 c -0.901,0.2 -1.806,0.435 -2.715,0.705 -0.911,0.27 -1.74,0.615 -2.49,1.035 -0.75,0.42 -1.356,0.985 -1.816,1.695 -0.46,0.71 -0.689,1.625 -0.689,2.745 0,1.081 0.285,2.075 0.854,2.985 0.571,0.91 1.45,1.639 2.641,2.19 1.189,0.55 2.704,0.825 4.545,0.825 1.219,0 2.429,-0.16 3.63,-0.48 1.2,-0.32 2.239,-0.779 3.12,-1.38 l -0.99,-2.399 c -0.901,0.599 -1.851,1.034 -2.85,1.304 -1.001,0.27 -1.971,0.406 -2.91,0.406 -1.181,0 -2.151,-0.151 -2.91,-0.451 -0.761,-0.299 -1.316,-0.7 -1.665,-1.2 -0.351,-0.5 -0.526,-1.06 -0.526,-1.679 0,-0.741 0.236,-1.331 0.705,-1.771 0.47,-0.44 1.08,-0.79 1.83,-1.05 0.75,-0.259 1.576,-0.495 2.476,-0.705 C 1.32,11.865 2.226,11.63 3.136,11.37 4.045,11.11 4.875,10.771 5.625,10.351 6.375,9.931 6.98,9.37 7.44,8.67 7.9,7.97 8.131,7.07 8.131,5.971 8.131,4.91 7.84,3.925 7.261,3.016 6.68,2.104 5.785,1.375 4.575,0.825 3.365,0.275 1.84,0 0,0" /></g></g></g></g></svg>